<svg width="200.00001" height="199.99999" xmlns="http://www.w3.org/2000/svg">
 <metadata id="metadata12">image/svg+xml</metadata>
 <g>
  <title>Layer 1</title>
  <circle id="svg_8" r="98.737343" cy="99" cx="99" fill-opacity="0.2" stroke-linecap="null" stroke-linejoin="null" fill="#3f51b5"/>
  <circle id="svg_7" r="97.737343" cy="100.000001" cx="99.999998" fill-opacity="0.8" stroke-linecap="null" stroke-linejoin="null" fill="#3f51b5"/>
  <g fill-opacity="0.8" id="g4">
   <path fill-opacity="0.8" fill="#e91e63" id="path6" d="m113.930084,44.394981c19.435486,15.860306 39.008591,31.49855 58.34993,47.538231c-18.921173,16.859573 -39.124512,31.583939 -58.29921,48.033569c-0.079689,-6.824112 -0.173866,-13.639717 -0.311493,-20.463821c-15.480301,0.42704 -31.148933,2.220642 -45.919319,7.994186c-14.900784,5.602783 -29.222054,14.562134 -40.030003,28.107864l0,-1.528839c4.339119,-18.636017 12.321938,-36.187447 24.028133,-49.835663c16.82769,-20.327141 39.269394,-32.557602 62.167473,-40.201645c0.007263,-6.550793 0.007263,-13.101589 0.014488,-19.643883z"/>
  </g>
  <path id="svg_1" fill-opacity="0.8" stroke-linecap="null" stroke-linejoin="null" fill="#3f51b5"/>
  <path id="svg_2" fill-opacity="0.8" stroke-linecap="null" stroke-linejoin="null" fill="#3f51b5"/>
  <path id="svg_3" fill-opacity="0.8" stroke-linecap="null" stroke-linejoin="null" fill="#3f51b5"/>
  <path id="svg_4" fill-opacity="0.8" stroke-linecap="null" stroke-linejoin="null" fill="#3f51b5"/>
  <path id="svg_5" fill-opacity="0.8" stroke-linecap="null" stroke-linejoin="null" fill="#3f51b5"/>
  <path id="svg_6" fill-opacity="0.8" stroke-linecap="null" stroke-linejoin="null" fill="#3f51b5"/>
 </g>
</svg>